<svg width="1057" height="1021" viewBox="0 0 1057 1021" fill="none" xmlns="http://www.w3.org/2000/svg">
<path fill-rule="evenodd" clip-rule="evenodd" d="M989.323 605.456C926.429 686.199 931.841 843.436 833.349 862.083C730.222 881.607 692.567 716.891 597.536 679.631C515.854 647.606 411.307 711.491 336.075 667.113C253.52 618.414 163.887 531.008 179.104 432.804C195.291 328.339 360.503 309.93 406.406 213.229C453.946 113.079 357.41 -26.2422 434.96 -106.192C506.888 -180.346 629.928 -124.805 729.676 -120.047C823.568 -115.569 927.402 -133.846 1001.45 -79.171C1074.68 -25.0957 1084.52 78.3859 1115.73 165.011C1145.58 247.833 1205.27 329.414 1180.18 416.827C1155.27 503.626 1045.42 533.439 989.323 605.456Z" fill="url(#paint0_linear)"/>
<defs>
<linearGradient id="paint0_linear" x1="1033.09" y1="-51.7069" x2="357.62" y2="698.846" gradientUnits="userSpaceOnUse">
<stop stop-color="#EB3349"/>
<stop offset="1" stop-color="#F45C43"/>
</linearGradient>
</defs>
</svg>
