<svg xmlns="http://www.w3.org/2000/svg" width="87.754" height="113.043" viewBox="0 0 87.754 113.043"><defs><style>.a{fill:#fff;}</style></defs><path class="a" d="M74.588,106.886h1.874q5.628,0,8.468,1.984a6.846,6.846,0,0,1,2.824,5.914,7.24,7.24,0,0,1-2.274,5.625,9.955,9.955,0,0,1-6.365,2.485,6.184,6.184,0,0,1,1.971,1.869,8.954,8.954,0,0,1,1.135,3.2l2.33,10.826H76.294l-1.706-7.9V120.1a6.476,6.476,0,0,0,2.955-1.02,3.378,3.378,0,0,0,1.572-3.024,2.806,2.806,0,0,0-1.079-2.485,5.112,5.112,0,0,0-3.2-.829h-.246m-9.963-5.857h9.963v5.856H71.519L70.062,120.2h2.972a12.781,12.781,0,0,0,1.553-.1v10.789l-.513-2.391a2.778,2.778,0,0,0-1.135-1.866,4.63,4.63,0,0,0-2.613-.558H68.81L66.2,138.784h-7.1v-5.24Zm-5.53,4.469,1.079-3.313c-.361-.115-.719-.23-1.079-.347Zm0,27.43H58.015l1.081-5.24Zm0-31.09a37.8,37.8,0,0,0-4.453-1.078,26.823,26.823,0,0,0-5.133-.5,22.748,22.748,0,0,0-8.37,1.367,16.553,16.553,0,0,0-6.289,4.2,16.9,16.9,0,0,0-3.58,5.8,19.681,19.681,0,0,0-1.175,4.737v4.779a13.228,13.228,0,0,0,4,8.516c2.765,2.656,6.609,4.044,11.553,4.044a26.45,26.45,0,0,0,4.189-.346c1.38-.213,2.857-.482,4.43-.869l.758-7.358a22.067,22.067,0,0,1-3.808,1.445,14.427,14.427,0,0,1-3.675.5,9.309,9.309,0,0,1-6.553-2.215,7.722,7.722,0,0,1-2.388-5.95c0-3.852,1.083-6.9,3.2-9.091,2.1-2.159,5.039-3.257,8.827-3.257a13.308,13.308,0,0,1,3.958.539,11.415,11.415,0,0,1,3.466,1.542l1.043-3.142v-3.659Zm-29,.771V108c.037.019.1.019.133.037Zm0-.461v.461l-1.933,6.03a12.4,12.4,0,0,0-3.52-1.542,13.077,13.077,0,0,0-3.96-.539c-3.751,0-6.742,1.1-8.845,3.257-2.122,2.195-3.165,5.239-3.165,9.091a7.535,7.535,0,0,0,2.387,5.95,9.244,9.244,0,0,0,6.516,2.215,14.016,14.016,0,0,0,3.693-.5,22.506,22.506,0,0,0,3.864-1.445l-.814,7.358c-1.533.387-3.049.656-4.45.869a26.355,26.355,0,0,1-4.185.346c-4.943,0-8.732-1.388-11.516-4.044C1.4,132.928,0,129.232,0,124.53a19.611,19.611,0,0,1,1.306-7.05,16.88,16.88,0,0,1,9.867-10,22.882,22.882,0,0,1,8.373-1.367,26.473,26.473,0,0,1,5.152.5A35.366,35.366,0,0,1,30.1,108Zm0,14.213a18.283,18.283,0,0,0-.132,2.313A20.382,20.382,0,0,0,30.1,127Z" transform="translate(0 -26.511)"/><path class="a" d="M49.172,6.913c5.3,2.526,8.88,7.264,8.88,12.79,0,5.472-3.559,10.308-8.88,12.638m0,29.682a23.746,23.746,0,0,0,18.106-.6,32.7,32.7,0,0,1-8.372,4.024,33.483,33.483,0,0,1-9.188,1.485l-.527.017h-.018Zm0-1.751a21.184,21.184,0,0,0,8.712,1.808c14.566,0,24.056-15.448,24.2-28.931A33.48,33.48,0,0,0,68.814,6.664c4.9,4.681,8.257,12.809,8.257,22.575,0,9.593-5.853,25.174-18.45,25.174A6.759,6.759,0,0,1,51.6,47.924c-.172-5.355,3.675-5.818,7.236-7.839,6.194-3.449,8.807-6.667,10.929-13.331C73,16.315,65.308.172,49.377,0h-.205V4.893c6.175,2.29,11,7.3,11,14.927,0,6.762-4.414,11.79-10.513,14.446a5.035,5.035,0,0,0-.49.212Zm-19.642.017A33.132,33.132,0,0,1,16.269,33.727c.115-13.483,9.509-28.757,24.019-28.757a20.568,20.568,0,0,1,8.884,1.942V32.34a1.1,1.1,0,0,1-.134.057c-6.175,2.718-10.874,7.838-10.874,14.678,0,7.628,4.83,12.638,11.007,14.948v4.93C33.089,66.781,25.34,50.581,28.639,40.142c2.062-6.724,4.678-9.883,10.871-13.389,3.618-1.983,7.426-2.485,7.254-7.782a6.7,6.7,0,0,0-7.026-6.549c-12.6,0-18.45,15.621-18.45,25.234C21.288,47.364,24.622,55.591,29.53,60.288ZM49.172,0h-.117A32.207,32.207,0,0,0,31.063,5.526a23.838,23.838,0,0,1,18.11-.633Zm0,34.477c-5.153,2.485-8.828,7.745-8.828,13.156,0,5.586,3.543,10.21,8.828,12.638Z" transform="translate(-4.268)"/></svg>